# Hierarchical Translation and Rotation (.htr) file
# Generated by EVaRT
[Header]
FileType htr
DataType HTRS
FileVersion 1
NumSegments 23
NumFrames 4
DataFrameRate 120
EulerRotationOrder ZYX
CalibrationUnits mm
RotationUnits Degrees
GlobalAxisofGravity Y
BoneLengthAxis Y
ScaleFactor 1
[SegmentNames&Hierarchy]
#CHILD            PARENT
DaveRoot          GLOBAL
Spine1            DaveRoot
Spine2            Spine1
Spine3            Spine2
Spine4            Spine3
Neck              Spine4
Head              Neck
LClavicle         Spine4
LUpperArm         LClavicle
LLowerArm         LUpperArm
LHand             LLowerArm
RClavicle         Spine4
RUpperArm         RClavicle
RLowerArm         RUpperArm
RHand             RLowerArm
RUpperLeg         DaveRoot
RLowerLeg         RUpperLeg
RFoot             RLowerLeg
RToes             RFoot
LUpperLeg         DaveRoot
LLowerLeg         LUpperLeg
LFoot             LLowerLeg
LToes             LFoot
[BasePosition]
#SegmentName      Tx   Ty   Tz   Rx   Ry   Rz   BoneLength
DaveRoot          1078.678277	988.889323	-667.355416	21.100172	-35.850280	-13.563871	100.000000
Spine1            0.000000	100.000000	0.000000	-14.881963	2.292165	3.740750	100.000000
Spine2            0.000000	100.000000	0.000000	6.530342	0.668586	4.295175	100.000000
Spine3            0.000000	100.000000	0.000000	12.838786	0.191691	4.342582	100.000000
Spine4            0.000000	100.000000	0.000000	14.062130	1.171471	5.872723	100.000000
Neck              0.000000	100.000000	0.000000	7.737895	11.498691	-3.920750	80.000000
Head              0.000000	80.000000	0.000000	-47.820279	-9.378091	-2.499782	200.000000
LClavicle         0.000000	100.000000	0.000000	7.006000	0.163524	-123.648937	200.000000
LUpperArm         0.000000	200.000000	0.000000	39.957204	52.516966	-16.160711	300.000000
LLowerArm         0.000000	300.000000	0.000000	-1.806693	2.175812	1.895763	200.000000
LHand             0.000000	200.000000	0.000000	16.195035	-1.768569	8.793625	120.000000
RClavicle         0.000000	100.000000	0.000000	3.329328	-3.962094	109.315139	200.000000
RUpperArm         0.000000	200.000000	0.000000	31.467517	-27.516660	21.198784	300.000000
RLowerArm         0.000000	300.000000	0.000000	20.023297	-3.682026	-7.348670	200.000000
RHand             0.000000	200.000000	0.000000	6.266882	13.427731	10.826414	120.000000
RUpperLeg         -115.911102	-10.000000	31.058285	22.207319	27.607647	-154.283666	530.000000
RLowerLeg         0.000000	530.000000	0.000000	-15.604109	0.479387	-2.520024	460.000000
RFoot             0.000000	460.000000	0.000000	98.099007	-9.797309	28.788465	130.000000
RToes             0.000000	130.000000	0.000000	-15.148141	0.005479	-0.002881	100.000000
LUpperLeg         115.911102	-10.000000	31.058285	41.660003	-3.682702	-163.432677	530.000000
LLowerLeg         0.000000	530.000000	0.000000	-22.778950	-3.275937	3.046484	460.000000
LFoot             0.000000	460.000000	0.000000	77.647326	-23.190969	-3.622247	130.000000
LToes             0.000000	130.000000	0.000000	14.512714	-0.000000	-0.000086	100.000000
#Beginning of Data.
[DaveRoot]
#Fr	Tx	Ty	Tz	Rx	Ry	Rz	SF
364	-374.100623	-239.579700	823.075830	87.156674	27.974971	0.488761	1.000000	
365	-376.523735	-243.580973	826.452185	86.483435	27.711692	0.150578	1.000000	
366	-379.011788	-247.830254	829.685580	85.792137	27.465292	-0.178267	1.000000	
367	-381.570407	-252.319875	832.772775	85.108912	27.239655	-0.480291	1.000000	
[Spine1]
#Fr	Tx	Ty	Tz	Rx	Ry	Rz	SF
364	0.000000	0.000000	0.000000	2.083331	-1.408097	-8.120126	1.000000	
365	0.000000	0.000000	0.000000	1.968736	-1.314814	-8.187409	1.000000	
366	0.000000	0.000000	0.000000	1.846619	-1.195931	-8.247215	1.000000	
367	0.000000	0.000000	0.000000	1.711733	-1.061868	-8.299281	1.000000	
[Spine2]
#Fr	Tx	Ty	Tz	Rx	Ry	Rz	SF
364	0.000000	0.000000	0.000000	2.083331	-1.408097	-8.120126	1.000000	
365	0.000000	0.000000	0.000000	1.968736	-1.314814	-8.187409	1.000000	
366	0.000000	0.000000	0.000000	1.846619	-1.195931	-8.247215	1.000000	
367	0.000000	0.000000	0.000000	1.711733	-1.061868	-8.299281	1.000000	
[Spine3]
#Fr	Tx	Ty	Tz	Rx	Ry	Rz	SF
364	0.000000	0.000000	0.000000	2.083331	-1.408097	-8.120126	1.000000	
365	0.000000	0.000000	0.000000	1.968736	-1.314814	-8.187409	1.000000	
366	0.000000	0.000000	0.000000	1.846619	-1.195931	-8.247215	1.000000	
367	0.000000	0.000000	0.000000	1.711733	-1.061868	-8.299281	1.000000	
[Spine4]
#Fr	Tx	Ty	Tz	Rx	Ry	Rz	SF
364	0.000000	0.000000	0.000000	2.083331	-1.408097	-8.120126	1.000000	
365	0.000000	0.000000	0.000000	1.968736	-1.314814	-8.187409	1.000000	
366	0.000000	0.000000	0.000000	1.846619	-1.195931	-8.247215	1.000000	
367	0.000000	0.000000	0.000000	1.711733	-1.061868	-8.299281	1.000000	
[Neck]
#Fr	Tx	Ty	Tz	Rx	Ry	Rz	SF
364	0.000000	0.000000	0.000000	-21.995237	2.381930	2.905650	1.000000	
365	0.000000	0.000000	0.000000	-22.065221	2.387573	2.899028	1.000000	
366	0.000000	0.000000	0.000000	-22.077010	2.390600	2.897572	1.000000	
367	0.000000	0.000000	0.000000	-22.037652	2.393307	2.902147	1.000000	
[Head]
#Fr	Tx	Ty	Tz	Rx	Ry	Rz	SF
364	0.000000	0.000000	0.000000	-21.995237	2.381930	2.905650	1.000000	
365	0.000000	0.000000	0.000000	-22.065221	2.387573	2.899028	1.000000	
366	0.000000	0.000000	0.000000	-22.077010	2.390600	2.897572	1.000000	
367	0.000000	0.000000	0.000000	-22.037652	2.393307	2.902147	1.000000	
[LClavicle]
#Fr	Tx	Ty	Tz	Rx	Ry	Rz	SF
364	0.000000	0.000000	0.000000	9.881616	-2.429996	33.007100	1.000000	
365	0.000000	0.000000	0.000000	10.409178	-2.499994	32.685022	1.000000	
366	0.000000	0.000000	0.000000	10.925369	-2.573989	32.424849	1.000000	
367	0.000000	0.000000	0.000000	11.416328	-2.650505	32.226234	1.000000	
[LUpperArm]
#Fr	Tx	Ty	Tz	Rx	Ry	Rz	SF
364	0.000000	0.000000	0.000000	-10.157036	61.096717	57.899886	1.000000	
365	0.000000	0.000000	0.000000	-10.348691	60.844535	56.438420	1.000000	
366	0.000000	0.000000	0.000000	-10.115889	60.376051	55.337834	1.000000	
367	0.000000	0.000000	0.000000	-9.528452	59.725754	54.516094	1.000000	
[LLowerArm]
#Fr	Tx	Ty	Tz	Rx	Ry	Rz	SF
364	0.000000	0.000000	0.000000	-36.233243	0.000000	0.000000	1.000000	
365	0.000000	0.000000	0.000000	-35.747121	-0.000000	0.000000	1.000000	
366	0.000000	0.000000	0.000000	-35.165151	0.000000	0.000000	1.000000	
367	0.000000	0.000000	0.000000	-34.515657	-0.000000	0.000000	1.000000	
[LHand]
#Fr	Tx	Ty	Tz	Rx	Ry	Rz	SF
364	0.000000	0.000000	0.000000	0.472123	-0.000000	0.000000	1.000000	
365	0.000000	0.000000	0.000000	0.183105	-0.000000	0.000000	1.000000	
366	0.000000	0.000000	0.000000	-0.243731	-0.000000	0.000000	1.000000	
367	0.000000	0.000000	0.000000	-0.751700	-0.000000	0.000000	1.000000	
[RClavicle]
#Fr	Tx	Ty	Tz	Rx	Ry	Rz	SF
364	0.000000	0.000000	0.000000	8.586484	0.310744	-3.572947	1.000000	
365	0.000000	0.000000	0.000000	8.535619	0.289516	-3.444112	1.000000	
366	0.000000	0.000000	0.000000	8.511893	0.259198	-3.247199	1.000000	
367	0.000000	0.000000	0.000000	8.510202	0.218495	-2.975743	1.000000	
[RUpperArm]
#Fr	Tx	Ty	Tz	Rx	Ry	Rz	SF
364	0.000000	0.000000	0.000000	8.296922	27.539211	-68.221296	1.000000	
365	0.000000	0.000000	0.000000	9.003860	25.777732	-67.406668	1.000000	
366	0.000000	0.000000	0.000000	9.610288	24.089834	-66.608791	1.000000	
367	0.000000	0.000000	0.000000	10.162753	22.502595	-65.795221	1.000000	
[RLowerArm]
#Fr	Tx	Ty	Tz	Rx	Ry	Rz	SF
364	0.000000	0.000000	0.000000	1.405375	0.000000	0.000000	1.000000	
365	0.000000	0.000000	0.000000	1.206189	0.000000	0.000000	1.000000	
366	0.000000	0.000000	0.000000	0.981183	0.000000	0.000000	1.000000	
367	0.000000	0.000000	0.000000	0.713318	0.000000	0.000000	1.000000	
[RHand]
#Fr	Tx	Ty	Tz	Rx	Ry	Rz	SF
364	0.000000	0.000000	0.000000	25.387867	-66.633111	-62.155082	1.000000	
365	0.000000	0.000000	0.000000	24.009021	-66.509821	-60.859654	1.000000	
366	0.000000	0.000000	0.000000	22.972906	-66.371574	-59.857136	1.000000	
367	0.000000	0.000000	0.000000	22.331957	-66.253723	-59.199462	1.000000	
[RUpperLeg]
#Fr	Tx	Ty	Tz	Rx	Ry	Rz	SF
364	0.000000	0.000000	0.000000	37.807068	-22.577175	-6.064552	1.000000	
365	0.000000	0.000000	0.000000	37.036980	-22.710821	-6.110513	1.000000	
366	0.000000	0.000000	0.000000	36.168249	-22.729568	-6.055125	1.000000	
367	0.000000	0.000000	0.000000	35.240936	-22.649734	-5.928385	1.000000	
[RLowerLeg]
#Fr	Tx	Ty	Tz	Rx	Ry	Rz	SF
364	0.000000	0.000000	0.000000	2.348311	-0.000000	0.000000	1.000000	
365	0.000000	0.000000	0.000000	2.250974	-0.000000	0.000000	1.000000	
366	0.000000	0.000000	0.000000	2.151301	-0.000000	0.000000	1.000000	
367	0.000000	0.000000	0.000000	2.046197	-0.000000	0.000000	1.000000	
[RFoot]
#Fr	Tx	Ty	Tz	Rx	Ry	Rz	SF
364	0.000000	0.000000	0.000000	-68.503137	-30.615502	20.326663	1.000000	
365	0.000000	0.000000	0.000000	-67.693653	-30.376079	19.258283	1.000000	
366	0.000000	0.000000	0.000000	-66.767985	-30.102813	18.028897	1.000000	
367	0.000000	0.000000	0.000000	-65.827685	-29.852920	16.764213	1.000000	
[RToes]
#Fr	Tx	Ty	Tz	Rx	Ry	Rz	SF
364	0.000000	0.000000	0.000000	33.832903	0.000000	0.000000	1.000000	
365	0.000000	0.000000	0.000000	32.857285	0.000000	0.000000	1.000000	
366	0.000000	0.000000	0.000000	31.933764	0.000000	0.000000	1.000000	
367	0.000000	0.000000	0.000000	31.178001	-0.000000	-0.000000	1.000000	
[LUpperLeg]
#Fr	Tx	Ty	Tz	Rx	Ry	Rz	SF
364	0.000000	0.000000	0.000000	56.089076	6.304140	-4.120271	1.000000	
365	0.000000	0.000000	0.000000	53.526869	5.830901	-4.856335	1.000000	
366	0.000000	0.000000	0.000000	50.891454	5.340383	-5.556157	1.000000	
367	0.000000	0.000000	0.000000	48.217139	4.851467	-6.215023	1.000000	
[LLowerLeg]
#Fr	Tx	Ty	Tz	Rx	Ry	Rz	SF
364	0.000000	0.000000	0.000000	-66.283274	0.000000	0.000000	1.000000	
365	0.000000	0.000000	0.000000	-65.328594	0.000000	0.000000	1.000000	
366	0.000000	0.000000	0.000000	-64.173437	0.000000	0.000000	1.000000	
367	0.000000	0.000000	0.000000	-62.807675	0.000000	0.000000	1.000000	
[LFoot]
#Fr	Tx	Ty	Tz	Rx	Ry	Rz	SF
364	0.000000	0.000000	0.000000	22.691191	15.374618	-0.243013	1.000000	
365	0.000000	0.000000	0.000000	21.713891	15.889345	-0.575579	1.000000	
366	0.000000	0.000000	0.000000	20.629161	16.420099	-1.002339	1.000000	
367	0.000000	0.000000	0.000000	19.422168	16.923710	-1.623883	1.000000	
[LToes]
#Fr	Tx	Ty	Tz	Rx	Ry	Rz	SF
364	0.000000	0.000000	0.000000	15.054017	0.000000	0.000000	1.000000	
365	0.000000	0.000000	0.000000	15.388412	0.000000	0.000000	1.000000	
366	0.000000	0.000000	0.000000	15.696642	0.000000	0.000000	1.000000	
367	0.000000	0.000000	0.000000	15.906360	0.000000	0.000000	1.000000	
